<svg xmlns="http://www.w3.org/2000/svg" viewBox="0 0 100 100">
    <rect width="100" height="100" rx="15" fill="#2c3e50"/>
    <path d="M20 25 C20 22, 22 20, 25 20 L48 20 L48 75 L25 75 C22 75, 20 73, 20 70 Z" fill="none" stroke="#fff" stroke-width="4"/>
    <path d="M52 20 L75 20 C78 20, 80 22, 80 25 L80 70 C80 73, 78 75, 75 75 L52 75 Z" fill="none" stroke="#fff" stroke-width="4"/>
    <line x1="50" y1="20" x2="50" y2="75" stroke="#fff" stroke-width="3"/>
    <line x1="28" y1="35" x2="43" y2="35" stroke="#fff" stroke-width="2.5" stroke-linecap="round"/>
    <line x1="28" y1="45" x2="43" y2="45" stroke="#fff" stroke-width="2.5" stroke-linecap="round"/>
    <line x1="28" y1="55" x2="40" y2="55" stroke="#fff" stroke-width="2.5" stroke-linecap="round"/>
    <line x1="57" y1="35" x2="72" y2="35" stroke="#fff" stroke-width="2.5" stroke-linecap="round"/>
    <line x1="57" y1="45" x2="72" y2="45" stroke="#fff" stroke-width="2.5" stroke-linecap="round"/>
    <line x1="57" y1="55" x2="69" y2="55" stroke="#fff" stroke-width="2.5" stroke-linecap="round"/>
</svg>
